<svg width="55" height="55" viewBox="0 0 55 55" fill="none" xmlns="http://www.w3.org/2000/svg">
<path d="M8.59375 44.6875C8.59375 46.5109 9.31808 48.2595 10.6074 49.5489C11.8967 50.8382 13.6454 51.5625 15.4688 51.5625H25.3516C25.4655 51.5625 25.5748 51.5172 25.6554 51.4366C25.736 51.3561 25.7812 51.2468 25.7812 51.1328V31.3672C25.7812 31.2532 25.736 31.1439 25.6554 31.0634C25.5748 30.9828 25.4655 30.9375 25.3516 30.9375H9.45312C9.2252 30.9375 9.00662 31.028 8.84546 31.1892C8.68429 31.3504 8.59375 31.569 8.59375 31.7969V44.6875Z" fill="white"/>
<path d="M25.7812 27.0703V15.4687H29.2188V27.0703C29.2188 27.1843 29.264 27.2936 29.3446 27.3741C29.4252 27.4547 29.5345 27.5 29.6484 27.5H44.6875C45.273 27.5 45.8543 27.4001 46.4062 27.2046C47.4107 26.848 48.2802 26.1894 48.8956 25.3192C49.5111 24.4489 49.8422 23.4096 49.8438 22.3437V20.625C49.8438 19.2575 49.3005 17.946 48.3335 16.979C47.3665 16.012 46.055 15.4687 44.6875 15.4687H40.3326C40.2952 15.4682 40.2586 15.4578 40.2264 15.4387C40.1942 15.4196 40.1676 15.3924 40.1491 15.3599C40.1307 15.3273 40.121 15.2905 40.1212 15.2531C40.1214 15.2156 40.1313 15.1789 40.15 15.1465C41.1446 13.4674 41.4676 11.4743 41.0543 9.56702C40.641 7.65972 39.522 5.97915 37.9216 4.8623C36.3212 3.74545 34.3578 3.27489 32.425 3.54496C30.4922 3.81504 28.7329 4.80579 27.5 6.31855C26.2671 4.80579 24.5078 3.81504 22.575 3.54496C20.6422 3.27489 18.6788 3.74545 17.0784 4.8623C15.478 5.97915 14.359 7.65972 13.9457 9.56702C13.5324 11.4743 13.8555 13.4674 14.85 15.1465C14.8687 15.1789 14.8786 15.2156 14.8788 15.2531C14.879 15.2905 14.8693 15.3273 14.8509 15.3599C14.8324 15.3924 14.8058 15.4196 14.7736 15.4387C14.7414 15.4578 14.7048 15.4682 14.6674 15.4687H10.3125C8.94498 15.4687 7.63347 16.012 6.66648 16.979C5.6995 17.946 5.15625 19.2575 5.15625 20.625V22.3437C5.15777 23.4096 5.48894 24.4489 6.10436 25.3192C6.71978 26.1894 7.58932 26.848 8.59375 27.2046C9.1457 27.4001 9.72695 27.5 10.3125 27.5H25.3516C25.4655 27.5 25.5748 27.4547 25.6554 27.3741C25.736 27.2936 25.7812 27.1843 25.7812 27.0703ZM29.2188 11.1719C29.2188 10.322 29.4708 9.49127 29.9429 8.78466C30.4151 8.07804 31.0861 7.5273 31.8713 7.20208C32.6564 6.87686 33.5204 6.79176 34.3539 6.95756C35.1874 7.12336 35.953 7.53259 36.554 8.13352C37.1549 8.73445 37.5641 9.50008 37.7299 10.3336C37.8957 11.1671 37.8106 12.0311 37.4854 12.8162C37.1602 13.6014 36.6095 14.2724 35.9028 14.7446C35.1962 15.2167 34.3655 15.4687 33.5156 15.4687H29.2188V11.1719ZM21.1771 6.88574C21.7658 6.84354 22.3569 6.92306 22.9135 7.11935C23.47 7.31563 23.9802 7.62447 24.4122 8.02661C24.8442 8.42875 25.1887 8.91556 25.4242 9.4567C25.6597 9.99783 25.7813 10.5817 25.7812 11.1719V15.4687H21.4844C20.3733 15.4659 19.3065 15.0328 18.5079 14.2603C17.7093 13.4878 17.241 12.436 17.2013 11.3256C17.1615 10.2152 17.5534 9.13265 18.2947 8.30503C19.036 7.4774 20.0691 6.96911 21.1771 6.88681V6.88574Z" fill="white"/>
<path d="M29.6484 51.5625H39.5312C41.3546 51.5625 43.1033 50.8382 44.3926 49.5489C45.6819 48.2595 46.4062 46.5109 46.4062 44.6875V31.7969C46.4062 31.569 46.3157 31.3504 46.1545 31.1892C45.9934 31.028 45.7748 30.9375 45.5469 30.9375H29.6484C29.5345 30.9375 29.4252 30.9828 29.3446 31.0634C29.264 31.1439 29.2188 31.2532 29.2188 31.3672V51.1328C29.2188 51.2468 29.264 51.3561 29.3446 51.4366C29.4252 51.5172 29.5345 51.5625 29.6484 51.5625Z" fill="white"/>
</svg>
