<svg width="55" height="55" viewBox="0 0 55 55" fill="none" xmlns="http://www.w3.org/2000/svg">
<path d="M30.0953 26.0809L27.2905 23.2751C26.6481 22.6325 25.7773 22.2704 24.8687 22.268C23.96 22.2655 23.0874 22.623 22.4415 23.2622L2.94121 41.2586C2.23115 41.9278 1.76494 42.7807 1.72197 43.7357C1.7013 44.2094 1.77848 44.6822 1.94871 45.1246C2.11893 45.5671 2.37854 45.9697 2.71133 46.3074L6.90078 50.543C6.90301 50.5458 6.90553 50.5483 6.9083 50.5506C7.5557 51.1958 8.43164 51.5595 9.3457 51.5625H9.47246C10.4274 51.527 11.2825 51.0791 11.9614 50.3626L30.0835 30.9514C30.4048 30.6329 30.6601 30.2539 30.8347 29.8365C31.0093 29.419 31.0997 28.9712 31.1008 28.5186C31.1019 28.0661 31.0137 27.6179 30.8411 27.1995C30.6686 26.7812 30.4151 26.4011 30.0953 26.0809Z" fill="white"/>
<path d="M52.6367 20.4102L52.6034 20.3769L48.9221 16.7331C48.7064 16.5182 48.4504 16.3481 48.1686 16.2327C47.8869 16.1173 47.5851 16.0588 47.2807 16.0606C46.7874 16.0611 46.3067 16.2167 45.9067 16.5054C45.9067 16.4592 45.9132 16.4141 45.9164 16.3743C45.9647 15.6761 46.0399 14.6212 45.3578 13.6651C44.5468 12.572 43.6564 11.5401 42.6937 10.5778C42.6912 10.5747 42.6883 10.5718 42.6852 10.5692C41.2543 9.15987 38.1401 6.50547 33.3695 4.56006C31.5603 3.81752 29.6233 3.43617 27.6676 3.4375C24.2773 3.4375 21.6992 4.96719 20.712 5.87383C20.153 6.40775 19.6432 6.99089 19.1888 7.61621C18.9717 7.91589 18.8571 8.27763 18.862 8.64766C18.867 9.01768 18.9913 9.37622 19.2163 9.66996C19.4414 9.9637 19.7553 10.177 20.1113 10.278C20.4672 10.3791 20.8463 10.3625 21.1922 10.2309C21.4935 10.1182 21.8012 10.0239 22.1139 9.94834C22.7649 9.81065 23.4327 9.76903 24.0958 9.82481C25.5127 9.9419 27.1885 10.6455 27.9297 11.231C29.1865 12.2418 29.7913 13.6039 29.8912 15.6449C29.9105 16.0553 29.0619 17.5936 27.7428 19.3488C27.4915 19.6801 27.3688 20.0912 27.3974 20.506C27.4261 20.9208 27.6041 21.3111 27.8985 21.6047L31.5949 25.3011C31.9055 25.6124 32.3237 25.7929 32.7633 25.8053C33.2029 25.8176 33.6305 25.661 33.9582 25.3677C35.0034 24.4342 36.5954 23.027 37.1519 22.6821C37.9779 22.174 38.5687 22.0763 38.731 22.0591C39.1519 22.0178 39.5753 22.1071 39.9437 22.3147C39.9456 22.3331 39.9436 22.3517 39.9378 22.3693C39.9321 22.3868 39.9228 22.403 39.9104 22.4168L39.7149 22.6026L39.6827 22.6327C39.4667 22.8479 39.2954 23.1038 39.1787 23.3855C39.0619 23.6672 39.0021 23.9692 39.0026 24.2742C39.0031 24.5791 39.0639 24.8809 39.1816 25.1623C39.2992 25.4436 39.4714 25.6989 39.6881 25.9134L43.3684 29.5561C43.584 29.7708 43.8402 29.9408 44.1219 30.056C44.4036 30.1712 44.7054 30.2295 45.0098 30.2274C45.621 30.2284 46.2081 29.9892 46.6447 29.5614L52.6066 23.6726C52.627 23.6522 52.6475 23.6307 52.6668 23.6092C53.0668 23.1708 53.286 22.5972 53.2804 22.0038C53.2748 21.4103 53.0449 20.841 52.6367 20.4102Z" fill="white"/>
</svg>
