<svg width="55" height="55" viewBox="0 0 55 55" fill="none" xmlns="http://www.w3.org/2000/svg">
<path d="M5.5 8.25C5.5 7.52065 5.78973 6.82118 6.30546 6.30546C6.82118 5.78973 7.52065 5.5 8.25 5.5H14.1707C14.8217 5.5003 15.4514 5.7315 15.9479 6.15246C16.4444 6.57343 16.7755 7.15687 16.8822 7.799L18.9173 19.9952C19.0145 20.5761 18.9227 21.1728 18.6553 21.6976C18.388 22.2223 17.9593 22.6474 17.4323 22.9102L13.1752 25.036C14.7018 28.819 16.9753 32.2555 19.8599 35.1401C22.7445 38.0247 26.181 40.2982 29.964 41.8247L32.0925 37.5677C32.3552 37.0412 32.7798 36.6128 33.304 36.3455C33.8282 36.0783 34.4243 35.9861 35.0047 36.0827L47.201 38.1177C47.8431 38.2245 48.4266 38.5556 48.8475 39.0521C49.2685 39.5486 49.4997 40.1783 49.5 40.8292V46.75C49.5 47.4793 49.2103 48.1788 48.6945 48.6945C48.1788 49.2103 47.4793 49.5 46.75 49.5H41.25C21.505 49.5 5.5 33.495 5.5 13.75V8.25Z" fill="white"/>
</svg>
